<?xml version="1.0" encoding="utf-8"?>
<!-- Generator: Adobe Illustrator 22.1.0, SVG Export Plug-In . SVG Version: 6.00 Build 0)  -->
<svg version="1.1" id="Calque_1" xmlns="http://www.w3.org/2000/svg" xmlns:xlink="http://www.w3.org/1999/xlink" x="0px" y="0px"
	 viewBox="0 0 21.9 21.9" style="enable-background:new 0 0 21.9 21.9;" xml:space="preserve">
<style type="text/css">
	.st0{fill:#FCFCFC;}
</style>
<g id="XMLID_1_">
	<g>
		<path class="st0" d="M21.6,1.7c0.2,0.2,0.3,0.5,0.3,0.7s-0.1,0.5-0.3,0.7l-7.5,7.5c-0.2,0.2-0.2,0.5,0,0.7l7.5,7.5
			c0.2,0.2,0.3,0.5,0.3,0.7c0,0.2-0.1,0.5-0.3,0.7l-1.4,1.4c-0.2,0.2-0.5,0.3-0.7,0.3s-0.5-0.1-0.7-0.3l-7.5-7.5
			c-0.2-0.2-0.5-0.2-0.7,0l-7.5,7.5c-0.2,0.2-0.5,0.3-0.7,0.3c-0.2,0-0.5-0.1-0.7-0.3l-1.4-1.4C0.1,20,0,19.7,0,19.5
			c0-0.2,0.1-0.5,0.3-0.7l7.5-7.5c0.2-0.2,0.2-0.5,0-0.7L0.3,3.1C0.1,2.9,0,2.6,0,2.4s0.1-0.5,0.3-0.7l1.4-1.4C1.9,0.1,2.2,0,2.4,0
			c0.2,0,0.5,0.1,0.7,0.3l7.5,7.5c0.2,0.2,0.5,0.2,0.7,0l7.5-7.5C19,0.1,19.2,0,19.5,0c0.2,0,0.5,0.1,0.7,0.3L21.6,1.7z"/>
	</g>
	<g>
	</g>
</g>
</svg>
