<svg id="Calque_1" data-name="Calque 1" xmlns="http://www.w3.org/2000/svg" viewBox="0 0 146.9 173.37"><defs><style>.cls-1{fill:#fff;}.cls-2{fill:#27215b;}.cls-3{isolation:isolate;font-size:14px;font-family:ArialMT, Arial;letter-spacing:0.14em;}</style></defs><title>logo</title><path class="cls-1" d="M371.29,134.23c5.2,0,6.7,2.6,8.8,6.2,2.3,3.9,5.1,8.7,13.1,8.7,7.8,0,10.8-4.8,13.2-8.6,2.3-3.6,4-6.3,9-6.3,5.2,0,6.7,2.6,8.8,6.2,2.3,3.9,5.1,8.7,13.1,8.7,7.8,0,10.8-4.8,13.2-8.6,2.3-3.6,4-6.3,9-6.3,5.2,0,6.7,2.6,8.8,6.2,2.3,3.9,5.1,8.7,13.1,8.7,7.8,0,10.8-4.8,13.2-8.6,2.3-3.6,4-6.3,9-6.3a2.7,2.7,0,1,0,0-5.4c-8.1,0-11.2,4.9-13.7,8.8-2.2,3.5-3.8,6.1-8.6,6.1s-6.2-2.4-8.4-6c-2.3-4-5.2-8.9-13.6-8.9-8.1,0-11.2,4.9-13.7,8.8-2.2,3.5-3.8,6.1-8.6,6.1s-6.2-2.4-8.4-6c-2.3-4-5.2-8.9-13.6-8.9-8.1,0-11.2,4.9-13.7,8.8-2.2,3.5-3.8,6.1-8.6,6.1s-6.2-2.4-8.4-6c-2.3-4-5.2-8.9-13.6-8.9a2.69,2.69,0,0,0-2.7,2.7C368,133,369.79,134.23,371.29,134.23Z" transform="translate(-364.09 -128.83)"/><path class="cls-2" d="M412.39,197.13c-1.6,0-2.7.2-5.5.2-3.7,0-6-.2-8.4-.2-1.2,0-1.7.3-1.7,1,0,2.1,5.6-.2,5.6,6.9,0,4.5-1.7,9.4-9.3,24.9l-10.2-24.7a6.77,6.77,0,0,1-.7-2.7c0-4.4,5.2-2.6,5.2-4.4,0-.8-.6-1-2.5-1-2.4,0-4.6.2-9.2.2-4,0-7.2-.2-9.9-.2-1.3,0-1.7.4-1.7,1,0,2.3,3-.2,5.5,5.3l17.1,38c.4.9.7,1.8,1.6,1.8s1.2-.9,1.6-1.8l16-33.4c4.5-9.4,8.4-8.3,8.4-9.8C414.29,197.33,413.59,197.13,412.39,197.13Zm50.6,38.2c-1.2,0-2.1,3.4-5.5,3.4-1.4,0-1.9-1.3-1.9-2.5v-28.1c0-7.4-3.5-11.6-12-11.6-12.4,0-24.4,7.7-24.4,14.3a4.59,4.59,0,0,0,4.9,4.8c4.7,0,6.4-2.1,7.5-7.8,1.2-6,4.7-8.9,9.4-8.9,2.5,0,3.7,1.2,3.7,3.5v12.7c-17.2,5.3-27,10-27,18.9,0,5.6,4.3,8.8,10.4,8.8,6.6,0,12.2-3.7,16.9-7.1.9,4,2.2,7.1,8.4,7.1,5.5,0,10.5-4.8,10.5-6.7C463.89,235.53,463.59,235.33,463,235.33Zm-18.2-2.2c-.2.7-5.9,5.7-10.8,5.7-4.2,0-5.4-4.6-5.4-8,0-7,6.9-10.4,16.2-13.8v16.1Zm51.4,4.2-13.5-.3c-6.1-.1-7.5-2.5-7.5-5.4,0-4.3,3.2-6,12.9-6.4,14.3-.7,18.6-7.8,18.6-14.9,0-7.7-6.1-12.8-18.5-13.8h-1.8c-10.2.4-17.7,5.9-17.7,14.7,0,8.1,5.1,12.1,12.7,13.4v.2c-6.2.4-13.5,3.9-13.5,11.7,0,4.1,1.6,7,4.6,8.9-4.7,1.2-7.1,3.5-7.1,6.7,0,4.9,5.4,10.8,20.5,10.8,19.5,0,25.1-5.5,25.1-13.6C511.09,241.73,506.19,237.53,496.19,237.33Zm-16.6-26.5c0-7.7,2.1-12.5,8.2-12.5s8.2,4.8,8.2,12.7c0,7.7-2.1,12.5-8.2,12.5S479.59,218.63,479.59,210.83Zm7,50.2c-13.4,0-16.7-5.7-16.7-9.6a6.41,6.41,0,0,1,4-5.5c11.7,4.7,29.9-1.5,29.9,7.4C503.79,258,498.59,261,486.59,261ZM434,191.23c3.9-2.4,4.9-2.1,8.7-1.2,9.2,2.2,9.3-7.5,2.5-9.2s-12.1,7.4-12.1,7.4S430.09,193.63,434,191.23Z" transform="translate(-364.09 -128.83)"/><text class="cls-3" transform="translate(13.07 168.82)">SAN-FRANSICO</text></svg>